<?xml version="1.0" encoding="UTF-8"?>
<svg width="59px" height="28px" viewBox="0 0 59 28" version="1.1" xmlns="http://www.w3.org/2000/svg" xmlns:xlink="http://www.w3.org/1999/xlink">
    <!-- Generator: Sketch 57 (83077) - https://sketch.com -->
    <title>4</title>
    <desc>Created with Sketch.</desc>
    <g id="4" stroke="none" stroke-width="1" fill="none" fill-rule="evenodd">
        <g id="Group" transform="translate(6.000000, 6.000000)" fill="#000000" fill-rule="nonzero">
            <path d="M23,5.10798122 C23,7.6619846 22.4398963,10.0031192 21.3196721,12.1314554 C20.199448,14.2597915 18.4918148,15.8826235 16.1967213,17 L13.4098361,14.7652582 C14.5027377,14.339591 15.595623,13.4084579 16.6885246,11.971831 C17.7814262,10.5352041 18.3278689,9.17841014 18.3278689,7.90140845 L13,7.90140845 L13,0 L23,0 L23,5.10798122 Z" id="Path"></path>
            <path d="M10,5.10798122 C10,7.6619846 9.43989631,10.0031192 8.31967213,12.1314554 C7.19944795,14.2597915 5.49181475,15.8826235 3.19672131,17 L0.409836066,14.7652582 C1.5027377,14.339591 2.59562295,13.4084579 3.68852459,11.971831 C4.78142623,10.5352041 5.32786885,9.17841014 5.32786885,7.90140845 L0,7.90140845 L0,0 L10,0 L10,5.10798122 Z" id="Path"></path>
            <path d="M48,17 L38,17 L38,11.7323944 C38,9.17839099 38.5737648,6.85055824 39.7213115,4.74882629 C40.8688582,2.64709434 42.5628303,1.06416808 44.8032787,0 L47.5901639,1.99530516 C46.934423,2.42097239 46.3333361,2.88653894 45.7868852,3.39201878 C45.2404344,3.89749862 44.7486361,4.41627277 44.3114754,4.94835681 C43.2185738,6.33177531 42.6721311,7.68856925 42.6721311,9.01877934 L48,9.01877934 L48,17 Z" id="Path"></path>
            <path d="M35,17 L25,17 L25,11.7323944 C25,9.17839099 25.5737648,6.85055824 26.7213115,4.74882629 C27.8688582,2.64709434 29.5628303,1.06416808 31.8032787,0 L34.5901639,1.99530516 C33.934423,2.42097239 33.3333361,2.88653894 32.7868852,3.39201878 C32.2404344,3.89749862 31.7486361,4.41627277 31.3114754,4.94835681 C30.2185738,6.33177531 29.6721311,7.68856925 29.6721311,9.01877934 L35,9.01877934 L35,17 Z" id="Path"></path>
        </g>
    </g>
</svg>