<?xml version="1.0" encoding="UTF-8"?>
<svg width="53px" height="25px" viewBox="0 0 53 25" version="1.1" xmlns="http://www.w3.org/2000/svg" xmlns:xlink="http://www.w3.org/1999/xlink">
    <!-- Generator: Sketch 57 (83077) - https://sketch.com -->
    <title>4</title>
    <desc>Created with Sketch.</desc>
    <g id="4" stroke="none" stroke-width="1" fill="none" fill-rule="evenodd">
        <g id="Group" transform="translate(5.500000, 5.000000)" fill="#000000" fill-rule="nonzero">
            <path d="M19.7,4.48 C19.7,6.7200112 19.2216715,8.773324 18.265,10.64 C17.3083285,12.506676 15.8500098,13.9299951 13.89,14.91 L11.51,12.95 C12.443338,12.5766648 13.376662,11.7600063 14.31,10.5 C15.243338,9.2399937 15.71,8.0500056 15.71,6.93 L11.16,6.93 L11.16,0 L19.7,0 L19.7,4.48 Z" id="Path"></path>
            <path d="M8.54,4.48 C8.54,6.7200112 8.06167145,8.773324 7.105,10.64 C6.14832855,12.506676 4.6900098,13.9299951 2.73,14.91 L0.35,12.95 C1.283338,12.5766648 2.216662,11.7600063 3.15,10.5 C4.083338,9.2399937 4.55,8.0500056 4.55,6.93 L-2.04281037e-14,6.93 L-2.04281037e-14,-1.77635684e-15 L8.54,-1.77635684e-15 L8.54,4.48 Z" id="Path"></path>
            <path d="M41.54,14.91 L33,14.91 L33,10.29 C33,8.0499888 33.4899951,6.00834255 34.47,4.165 C35.4500049,2.32165745 36.8966571,0.933338 38.81,0 L41.19,1.75 C40.6299972,2.1233352 40.116669,2.53166445 39.65,2.975 C39.183331,3.41833555 38.7633352,3.873331 38.39,4.34 C37.456662,5.5533394 36.99,6.7433275 36.99,7.91 L41.54,7.91 L41.54,14.91 Z" id="Path"></path>
            <path d="M30.54,14.91 L22,14.91 L22,10.29 C22,8.0499888 22.4899951,6.00834255 23.47,4.165 C24.4500049,2.32165745 25.8966571,0.933338 27.81,-1.77635684e-15 L30.19,1.75 C29.6299972,2.1233352 29.116669,2.53166445 28.65,2.975 C28.183331,3.41833555 27.7633352,3.873331 27.39,4.34 C26.456662,5.5533394 25.99,6.7433275 25.99,7.91 L30.54,7.91 L30.54,14.91 Z" id="Path"></path>
        </g>
    </g>
</svg>